<svg width="200" height="52" viewBox="0 0 200 52" xmlns="http://www.w3.org/2000/svg">
  <!-- Ícono hoja -->
  <circle cx="26" cy="26" r="26" fill="#4A5240"/>
  <path d="M26 10 C36 10 44 18 44 28 C44 38 36 46 26 50 C16 46 8 38 8 28 C8 18 16 10 26 10 Z" fill="#7C8C6E"/>
  <path d="M29 12 C38 14 44 22 43 30 C42 38 36 44 29 48 C31 42 33 36 32 28 C31 22 30 16 29 12 Z" fill="#A3B38C" opacity="0.8"/>
  <line x1="26" y1="10" x2="26" y2="50" stroke="#F5F0E8" stroke-width="1.2" stroke-linecap="round"/>
  <line x1="26" y1="28" x2="14" y2="22" stroke="#F5F0E8" stroke-width="1" stroke-linecap="round"/>
  <line x1="26" y1="28" x2="38" y2="22" stroke="#F5F0E8" stroke-width="1" stroke-linecap="round"/>
  <line x1="26" y1="34" x2="16" y2="30" stroke="#F5F0E8" stroke-width="0.8" stroke-linecap="round"/>
  <line x1="26" y1="34" x2="36" y2="30" stroke="#F5F0E8" stroke-width="0.8" stroke-linecap="round"/>
  <circle cx="26" cy="9" r="4" fill="#A3B38C"/>

  <!-- Texto Flore -->
  <text x="62" y="30" font-family="Georgia, serif" font-size="26" font-weight="500" fill="#2C2C2A" letter-spacing="-0.5">Flore</text>
  <!-- Subtexto -->
  <text x="63" y="44" font-family="system-ui, sans-serif" font-size="9" fill="#8A8A8A" letter-spacing="3">FINANZAS</text>
  <!-- Punto decorativo -->
  <circle cx="58" cy="41" r="2.5" fill="#7C8C6E"/>
</svg>
